<?xml version="1.0" encoding="UTF-8"?>
<svg version="1.1" xmlns="http://www.w3.org/2000/svg" width="500" height="500">
<path d="M0 0 C10.20525097 8.23797367 17.17694692 19.91181017 19.4375 32.8125 C19.95275936 39.2055274 19.78803158 45.63543554 19.73046875 52.04296875 C19.72486325 53.88812411 19.72059767 55.73328398 19.71760559 57.57844543 C19.70623185 62.40024462 19.67683023 67.22176635 19.64349365 72.04345703 C19.61263041 76.9775009 19.59906574 81.91159024 19.58398438 86.84570312 C19.55195235 96.501423 19.50084797 106.1569383 19.4375 115.8125 C20.44037552 115.80583817 21.44325104 115.79917633 22.47651672 115.79231262 C31.9649682 115.7312843 41.45337942 115.68642358 50.94198322 115.65706348 C55.81923467 115.64146133 60.69632664 115.6203235 65.57348633 115.58618164 C70.28731524 115.55339269 75.00099154 115.53560608 79.71492577 115.52786827 C81.50610949 115.52235963 83.29728562 115.51160332 85.0884037 115.49530983 C101.17435435 115.35490551 114.11970251 117.66940943 127.6875 127.0625 C139.25052614 138.62552614 146.27202236 151.51961482 146.625 168.0625 C146.36279293 182.92762404 141.43291947 196.1404959 131.0625 206.9375 C119.32352107 217.73606349 107.16097499 222.00491394 91.29907227 221.92602539 C90.51776443 221.92617142 89.7364566 221.92631744 88.93147278 221.9264679 C86.3722548 221.92577627 83.81311138 221.91801927 81.25390625 221.91015625 C79.47029154 221.9082894 77.68667632 221.90686676 75.90306091 221.90586853 C71.22598842 221.90206435 66.54894735 221.89225213 61.87188721 221.88116455 C57.09233017 221.87090516 52.31276802 221.86636123 47.53320312 221.86132812 C38.167955 221.85062786 28.80273012 221.83357682 19.4375 221.8125 C19.44860306 222.81902115 19.45970612 223.8255423 19.47114563 224.86256409 C19.57307821 234.40856769 19.64772996 243.954459 19.69656086 253.50088596 C19.72251054 258.40731786 19.75763675 263.31330589 19.81469727 268.21948242 C19.86954465 272.96577675 19.89903013 277.71164768 19.91188622 282.45823479 C19.9210325 284.25732006 19.93888933 286.05638558 19.96615028 287.85528755 C20.23352312 306.25225035 16.52059718 320.25693124 3.625 334.0625 C-6.40103933 343.68050285 -19.16732464 348.69410393 -32.9921875 348.8515625 C-48.27125388 348.13695138 -62.33682111 343.20543559 -72.94140625 331.8125 C-82.17250766 320.42376765 -86.74844994 308.42222567 -86.67602539 293.78759766 C-86.67617142 293.00643585 -86.67631744 292.22527405 -86.6764679 291.42044067 C-86.67577498 288.8557857 -86.66801184 286.29120468 -86.66015625 283.7265625 C-86.65828986 281.94151855 -86.656867 280.15647409 -86.65586853 278.37142944 C-86.65206075 273.68612235 -86.64224538 269.00084654 -86.63116455 264.31555176 C-86.62091297 259.52938256 -86.61636289 254.74320828 -86.61132812 249.95703125 C-86.60062149 240.57550713 -86.58356604 231.19400617 -86.5625 221.8125 C-87.54253998 221.81694122 -88.52257996 221.82138245 -89.53231812 221.82595825 C-98.80035927 221.86662682 -108.06838216 221.89654297 -117.33649254 221.91612434 C-122.10050573 221.92652996 -126.86444646 221.94062989 -131.62841797 221.96337891 C-136.23200816 221.98522272 -140.83552897 221.99709282 -145.43916702 222.00225449 C-147.18929765 222.00592963 -148.93942478 222.01310588 -150.6895256 222.02396011 C-169.23344865 222.13432256 -184.50566998 219.63572202 -198.37890625 206.1953125 C-211.08267212 192.33252685 -213.35506764 178.57173909 -212.73730469 160.42724609 C-211.91247616 148.08937799 -204.50066555 136.84686524 -195.6328125 128.5859375 C-181.81544454 116.74992797 -166.59902946 115.05424761 -149.0625 115.32421875 C-147.24691758 115.33357283 -145.43132234 115.34067662 -143.61572266 115.34565735 C-138.89403916 115.36452343 -134.17315516 115.41344147 -129.45178223 115.46917725 C-124.61119393 115.52081646 -119.7704733 115.54326564 -114.9296875 115.56835938 C-105.4736118 115.62158562 -96.01812301 115.70664273 -86.5625 115.8125 C-86.57138245 114.82881439 -86.58026489 113.84512878 -86.5894165 112.83163452 C-86.67093295 103.50602579 -86.73067032 94.1804905 -86.76974869 84.85460472 C-86.79051554 80.06144597 -86.81863083 75.26857762 -86.86425781 70.47558594 C-86.90810847 65.83953675 -86.9317188 61.20376473 -86.94200897 56.56752396 C-86.94933066 54.80950185 -86.96362553 53.0514928 -86.98542023 51.29359055 C-87.21147512 32.28346805 -83.39623907 17.38468055 -70.04296875 3.13671875 C-50.36610814 -15.30065458 -21.39905432 -15.58253285 0 0 Z " fill="#030303" transform="translate(282.5625,84.1875)"/>
</svg>
